<?xml version="1.0" standalone="no"?>
<svg xmlns:xlink="http://www.w3.org/1999/xlink" id="wave" style="transform:rotate(0deg); transition: 0.3s" viewBox="0 0 1440 100" version="1.1" xmlns="http://www.w3.org/2000/svg"><defs><linearGradient id="sw-gradient-0" x1="0" x2="0" y1="1" y2="0"><stop stop-color="rgba(2, 19, 77, 1)" offset="0%"/><stop stop-color="rgba(2, 19, 77, 1)" offset="100%"/></linearGradient></defs><path style="transform:translate(0, 0px); opacity:1" fill="url(#sw-gradient-0)" d="M0,0L10.4,1.7C20.9,3,42,7,63,20C83.5,33,104,57,125,63.3C146.1,70,167,60,188,58.3C208.7,57,230,63,250,65C271.3,67,292,63,313,51.7C333.9,40,355,20,376,23.3C396.5,27,417,53,438,65C459.1,77,480,73,501,63.3C521.7,53,543,37,563,31.7C584.3,27,605,33,626,38.3C647,43,668,47,689,40C709.6,33,730,17,751,15C772.2,13,793,27,814,33.3C834.8,40,856,40,877,46.7C897.4,53,918,67,939,60C960,53,981,27,1002,13.3C1022.6,0,1043,0,1064,5C1085.2,10,1106,20,1127,23.3C1147.8,27,1169,23,1190,28.3C1210.4,33,1231,47,1252,51.7C1273,57,1294,53,1315,50C1335.7,47,1357,43,1377,45C1398.3,47,1419,53,1440,55C1460.9,57,1482,53,1492,51.7L1502.6,50L1502.6,100L1492.2,100C1481.7,100,1461,100,1440,100C1419.1,100,1398,100,1377,100C1356.5,100,1336,100,1315,100C1293.9,100,1273,100,1252,100C1231.3,100,1210,100,1190,100C1168.7,100,1148,100,1127,100C1106.1,100,1085,100,1064,100C1043.5,100,1023,100,1002,100C980.9,100,960,100,939,100C918.3,100,897,100,877,100C855.7,100,835,100,814,100C793,100,772,100,751,100C730.4,100,710,100,689,100C667.8,100,647,100,626,100C605.2,100,584,100,563,100C542.6,100,522,100,501,100C480,100,459,100,438,100C417.4,100,397,100,376,100C354.8,100,334,100,313,100C292.2,100,271,100,250,100C229.6,100,209,100,188,100C167,100,146,100,125,100C104.3,100,83,100,63,100C41.7,100,21,100,10,100L0,100Z"/></svg>